<svg viewBox="0 0 20 20" fill="none" xmlns="http://www.w3.org/2000/svg">
<path d="M13.3332 17.4998V15.8331C13.3332 13.9922 11.8408 12.4998 9.99984 12.4998H4.99984C3.15889 12.4998 1.6665 13.9922 1.6665 15.8331V17.4998M13.3332 2.60645C14.8033 2.98758 15.83 4.31434 15.83 5.83311C15.83 7.35189 14.8033 8.67864 13.3332 9.05978M18.3332 17.4998V15.8331C18.332 14.314 17.304 12.9879 15.8332 12.6081" stroke="currentColor" stroke-width="1.66667" stroke-linecap="round" stroke-linejoin="round"/>
<path d="M4.1665 5.83333C4.1665 7.67305 5.66012 9.16667 7.49984 9.16667C9.33955 9.16667 10.8332 7.67305 10.8332 5.83333C10.8332 3.99362 9.33955 2.5 7.49984 2.5C5.66012 2.5 4.1665 3.99362 4.1665 5.83333V5.83333" stroke="currentColor" stroke-width="1.66667" stroke-linecap="round" stroke-linejoin="round"/>
</svg>
