<svg viewBox="0 0 20 20" fill="none" xmlns="http://www.w3.org/2000/svg">
<path d="M1.6665 7.91682C1.66654 6.01844 2.83687 4.31656 4.60951 3.63715C6.38215 2.95774 8.39016 3.44143 9.659 4.85348C9.74725 4.94783 9.87065 5.00138 9.99984 5.00138C10.129 5.00138 10.2524 4.94783 10.3407 4.85348C11.6058 3.43199 13.6187 2.94201 15.3956 3.62305C17.1724 4.30409 18.3422 6.01391 18.3332 7.91682C18.3332 9.82515 17.0832 11.2501 15.8332 12.5001L11.2565 16.9276C10.9424 17.2884 10.4884 17.4968 10.0101 17.4999C9.53174 17.5029 9.07516 17.3002 8.7565 16.9435L4.1665 12.5001C2.9165 11.2501 1.6665 9.83348 1.6665 7.91682" stroke="currentColor" stroke-width="1.66667" stroke-linecap="round" stroke-linejoin="round"/>
</svg>
