<svg viewBox="0 0 16 16" fill="none" xmlns="http://www.w3.org/2000/svg">
<path d="M9.99999 14.6668V12.0002C10.0927 11.165 9.85327 10.3269 9.33332 9.66683C11.3333 9.66683 13.3333 8.3335 13.3333 6.00016C13.3867 5.16683 13.1533 4.34683 12.6667 3.66683C12.8533 2.90016 12.8533 2.10016 12.6667 1.3335C12.6667 1.3335 12 1.3335 10.6667 2.3335C8.90665 2.00016 7.09332 2.00016 5.33332 2.3335C3.99999 1.3335 3.33332 1.3335 3.33332 1.3335C3.13332 2.10016 3.13332 2.90016 3.33332 3.66683C2.84775 4.34401 2.61213 5.16867 2.66665 6.00016C2.66665 8.3335 4.66665 9.66683 6.66665 9.66683C6.40665 9.9935 6.21332 10.3668 6.09999 10.7668C5.98665 11.1668 5.95332 11.5868 5.99999 12.0002V14.6668" stroke="currentColor" stroke-width="1.33333" stroke-linecap="round" stroke-linejoin="round"/>
<path d="M5.99992 12.0001C2.99325 13.3334 2.66659 10.6667 1.33325 10.6667" stroke="currentColor" stroke-width="1.33333" stroke-linecap="round" stroke-linejoin="round"/>
</svg>
