<svg viewBox="0 0 20 20" fill="none" xmlns="http://www.w3.org/2000/svg">
<path d="M3.33333 2.5H7.5C7.96024 2.5 8.33333 2.8731 8.33333 3.33333V7.5C8.33333 7.96024 7.96024 8.33333 7.5 8.33333H3.33333C2.8731 8.33333 2.5 7.96024 2.5 7.5V3.33333C2.5 2.8731 2.8731 2.5 3.33333 2.5V2.5" stroke="currentColor" stroke-width="1.66667" stroke-linecap="round" stroke-linejoin="round"/>
<path d="M12.4998 2.5H16.6665C17.1267 2.5 17.4998 2.8731 17.4998 3.33333V7.5C17.4998 7.96024 17.1267 8.33333 16.6665 8.33333H12.4998C12.0396 8.33333 11.6665 7.96024 11.6665 7.5V3.33333C11.6665 2.8731 12.0396 2.5 12.4998 2.5V2.5" stroke="currentColor" stroke-width="1.66667" stroke-linecap="round" stroke-linejoin="round"/>
<path d="M12.4998 11.6665H16.6665C17.1267 11.6665 17.4998 12.0396 17.4998 12.4998V16.6665C17.4998 17.1267 17.1267 17.4998 16.6665 17.4998H12.4998C12.0396 17.4998 11.6665 17.1267 11.6665 16.6665V12.4998C11.6665 12.0396 12.0396 11.6665 12.4998 11.6665V11.6665" stroke="currentColor" stroke-width="1.66667" stroke-linecap="round" stroke-linejoin="round"/>
<path d="M3.33333 11.6665H7.5C7.96024 11.6665 8.33333 12.0396 8.33333 12.4998V16.6665C8.33333 17.1267 7.96024 17.4998 7.5 17.4998H3.33333C2.8731 17.4998 2.5 17.1267 2.5 16.6665V12.4998C2.5 12.0396 2.8731 11.6665 3.33333 11.6665V11.6665" stroke="currentColor" stroke-width="1.66667" stroke-linecap="round" stroke-linejoin="round"/>
</svg>
