<svg viewBox="0 0 16 16" fill="none" xmlns="http://www.w3.org/2000/svg">
<path d="M10.6666 5.3335C12.8742 5.3335 14.6666 7.12584 14.6666 9.3335V14.0002H11.9999V9.3335C11.9999 8.59761 11.4025 8.00016 10.6666 8.00016C9.9307 8.00016 9.33325 8.59761 9.33325 9.3335V14.0002H6.66659V9.3335C6.66659 7.12584 8.45893 5.3335 10.6666 5.3335M1.33325 6.00016H3.99992V14.0002H1.33325L10.6666 5.3335" stroke="currentColor" stroke-width="1.33333" stroke-linecap="round" stroke-linejoin="round"/>
<path d="M1.33325 2.66683C1.33325 3.40272 1.9307 4.00016 2.66659 4.00016C3.40247 4.00016 3.99992 3.40272 3.99992 2.66683C3.99992 1.93094 3.40247 1.3335 2.66659 1.3335C1.9307 1.3335 1.33325 1.93094 1.33325 2.66683H1.33325" stroke="currentColor" stroke-width="1.33333" stroke-linecap="round" stroke-linejoin="round"/>
</svg>
