<svg viewBox="0 0 32 32" fill="none" xmlns="http://www.w3.org/2000/svg">
<rect width="32" height="32" rx="6" fill="currentColor"/>
<path d="M19.3333 8.5C18.4129 8.5 17.6667 9.24619 17.6667 10.1667V15.1667C17.6667 16.0871 18.4129 16.8333 19.3333 16.8333C19.7936 16.8333 20.1667 17.2064 20.1667 17.6667V18.5C20.1667 19.4205 19.4205 20.1667 18.5 20.1667C18.0398 20.1667 17.6667 20.5398 17.6667 21V22.6667C17.6667 23.1269 18.0398 23.5 18.5 23.5C21.2614 23.5 23.5 21.2614 23.5 18.5V10.1667C23.5 9.24619 22.7538 8.5 21.8333 8.5H19.3333M10.1667 8.5C9.24619 8.5 8.5 9.24619 8.5 10.1667V15.1667C8.5 16.0871 9.24619 16.8333 10.1667 16.8333C10.6269 16.8333 11 17.2064 11 17.6667V18.5C11 19.4205 10.2538 20.1667 9.33333 20.1667C8.8731 20.1667 8.5 20.5398 8.5 21V22.6667C8.5 23.1269 8.8731 23.5 9.33333 23.5C12.0948 23.5 14.3333 21.2614 14.3333 18.5V10.1667C14.3333 9.24619 13.5871 8.5 12.6667 8.5H10.1667" stroke="#F9FAFB" stroke-width="1.66667" stroke-linecap="round" stroke-linejoin="round"/>
</svg>
