<svg viewBox="0 0 64 64" fill="none" xmlns="http://www.w3.org/2000/svg">
<path d="M42.6667 8C39.7231 8 37.3333 10.3898 37.3333 13.3333V29.3333C37.3333 32.2769 39.7231 34.6667 42.6667 34.6667C44.1384 34.6667 45.3333 35.8616 45.3333 37.3333V40C45.3333 42.9435 42.9435 45.3333 40 45.3333C38.5282 45.3333 37.3333 46.5282 37.3333 48V53.3333C37.3333 54.8051 38.5282 56 40 56C48.8306 56 56 48.8306 56 40V13.3333C56 10.3898 53.6102 8 50.6667 8H42.6667M13.3333 8C10.3898 8 8 10.3898 8 13.3333V29.3333C8 32.2769 10.3898 34.6667 13.3333 34.6667C14.8051 34.6667 16 35.8616 16 37.3333V40C16 42.9435 13.6102 45.3333 10.6667 45.3333C9.19489 45.3333 8 46.5282 8 48V53.3333C8 54.8051 9.19489 56 10.6667 56C19.4973 56 26.6667 48.8306 26.6667 40V13.3333C26.6667 10.3898 24.2769 8 21.3333 8H13.3333" stroke="currentColor" stroke-width="5.33333" stroke-linecap="round" stroke-linejoin="round"/>
</svg>
