<svg viewBox="0 0 30 30" fill="none" xmlns="http://www.w3.org/2000/svg">
<path fill-rule="evenodd" clip-rule="evenodd" d="M0 6.56247C0 6.04471 0.419733 5.62497 0.9375 5.62497H1.875C6.00393 5.62497 9.05065 7.95052 11.0132 10.1584C11.9333 11.1935 12.6364 12.2253 13.125 13.0312C13.6136 12.2253 14.3167 11.1935 15.2368 10.1584C17.1993 7.95052 20.2461 5.62497 24.375 5.62497V7.49997C21.0039 7.49997 18.4257 9.39317 16.6382 11.4041C15.7504 12.4029 15.0815 13.4055 14.6346 14.1596C14.4324 14.5008 14.2769 14.789 14.1683 15C14.2769 15.2109 14.4324 15.4991 14.6346 15.8404C15.0815 16.5944 15.7504 17.5971 16.6382 18.5959C18.4257 20.6068 21.0039 22.5 24.375 22.5V24.375C20.2461 24.375 17.1993 22.0494 15.2368 19.8416C14.3167 18.8064 13.6136 17.7746 13.125 16.9688C12.6364 17.7746 11.9333 18.8064 11.0132 19.8416C9.05065 22.0494 6.00393 24.375 1.875 24.375H0.9375C0.419733 24.375 0 23.9552 0 23.4375C0 22.9197 0.419733 22.5 0.9375 22.5H1.875C5.24607 22.5 7.82435 20.6068 9.6118 18.5959C10.4996 17.5971 11.1685 16.5944 11.6154 15.8404C11.8176 15.4991 11.9731 15.2109 12.0817 15C11.9731 14.789 11.8176 14.5008 11.6154 14.1596C11.1685 13.4055 10.4996 12.4029 9.6118 11.4041C7.82435 9.39317 5.24607 7.49997 1.875 7.49997H0.9375C0.419733 7.49997 0 7.08024 0 6.56247Z" fill="currentColor"/>
<path d="M24.375 10.2492V2.87577C24.375 2.47835 24.8385 2.26125 25.1438 2.51567L29.5679 6.20237C29.7928 6.38977 29.7928 6.73517 29.5679 6.92258L25.1438 10.6093C24.8385 10.8637 24.375 10.6466 24.375 10.2492Z" fill="currentColor"/>
<path d="M24.375 27.1242V19.7508C24.375 19.3533 24.8385 19.1362 25.1438 19.3907L29.5679 23.0774C29.7928 23.2648 29.7928 23.6102 29.5679 23.7976L25.1438 27.4843C24.8385 27.7387 24.375 27.5216 24.375 27.1242Z" fill="currentColor"/>
</svg>
